<svg xmlns="http://www.w3.org/2000/svg" xmlns:xlink="http://www.w3.org/1999/xlink" width="375" viewBox="0 0 375 375" height="375" version="1.0"><defs><g id="c"><path d="M 9.515625 0 L 8.875 -2.46875 L 4.578125 -2.46875 L 3.921875 0 L 0 0 L 4.3125 -13.25 L 9.0625 -13.25 L 13.421875 0 Z M 8.125 -5.390625 L 7.5625 -7.5625 C 7.425781 -8.039062 7.265625 -8.660156 7.078125 -9.421875 C 6.890625 -10.191406 6.765625 -10.742188 6.703125 -11.078125 C 6.648438 -10.765625 6.539062 -10.253906 6.375 -9.546875 C 6.21875 -8.847656 5.867188 -7.460938 5.328125 -5.390625 Z M 8.125 -5.390625"/></g><g id="e"><path d="M 13.984375 0 L 9.3125 0 L 4.5 -9.296875 L 4.40625 -9.296875 C 4.519531 -7.835938 4.578125 -6.722656 4.578125 -5.953125 L 4.578125 0 L 1.421875 0 L 1.421875 -13.203125 L 6.078125 -13.203125 L 10.890625 -4.03125 L 10.9375 -4.03125 C 10.851562 -5.351562 10.8125 -6.421875 10.8125 -7.234375 L 10.8125 -13.203125 L 13.984375 -13.203125 Z M 13.984375 0"/></g><g id="f"><path d="M 9.265625 0 L 1.421875 0 L 1.421875 -13.203125 L 9.265625 -13.203125 L 9.265625 -10.328125 L 4.984375 -10.328125 L 4.984375 -8.265625 L 8.9375 -8.265625 L 8.9375 -5.390625 L 4.984375 -5.390625 L 4.984375 -2.90625 L 9.265625 -2.90625 Z M 9.265625 0"/></g><g id="g"><path d="M 15.671875 0 L 11.46875 0 L 10.203125 -5.75 C 10.140625 -5.988281 10.039062 -6.46875 9.90625 -7.1875 C 9.78125 -7.90625 9.6875 -8.503906 9.625 -8.984375 C 9.582031 -8.585938 9.503906 -8.097656 9.390625 -7.515625 C 9.285156 -6.941406 9.179688 -6.410156 9.078125 -5.921875 C 8.972656 -5.429688 8.535156 -3.457031 7.765625 0 L 3.546875 0 L 0.28125 -13.203125 L 3.71875 -13.203125 L 5.15625 -6.578125 C 5.476562 -5.117188 5.703125 -3.957031 5.828125 -3.09375 C 5.898438 -3.695312 6.035156 -4.523438 6.234375 -5.578125 C 6.441406 -6.640625 6.632812 -7.515625 6.8125 -8.203125 L 7.96875 -13.203125 L 11.265625 -13.203125 L 12.40625 -8.203125 C 12.59375 -7.398438 12.785156 -6.472656 12.984375 -5.421875 C 13.179688 -4.378906 13.316406 -3.601562 13.390625 -3.09375 C 13.460938 -3.757812 13.675781 -4.914062 14.03125 -6.5625 L 15.484375 -13.203125 L 18.921875 -13.203125 Z M 15.671875 0"/></g><g id="h"><path d="M 6.140625 -8.296875 L 8.40625 -13.203125 L 12.28125 -13.203125 L 7.9375 -5.15625 L 7.9375 0 L 4.34375 0 L 4.34375 -5.046875 L 0 -13.203125 L 3.875 -13.203125 Z M 6.140625 -8.296875"/></g><g id="i"><path d="M 13.765625 -6.609375 C 13.765625 -4.390625 13.21875 -2.703125 12.125 -1.546875 C 11.039062 -0.390625 9.453125 0.1875 7.359375 0.1875 C 5.285156 0.1875 3.695312 -0.390625 2.59375 -1.546875 C 1.488281 -2.710938 0.9375 -4.410156 0.9375 -6.640625 C 0.9375 -8.828125 1.484375 -10.5 2.578125 -11.65625 C 3.679688 -12.820312 5.28125 -13.40625 7.375 -13.40625 C 9.476562 -13.40625 11.066406 -12.828125 12.140625 -11.671875 C 13.222656 -10.523438 13.765625 -8.835938 13.765625 -6.609375 Z M 4.6875 -6.609375 C 4.6875 -4.054688 5.578125 -2.78125 7.359375 -2.78125 C 8.253906 -2.78125 8.921875 -3.085938 9.359375 -3.703125 C 9.796875 -4.328125 10.015625 -5.296875 10.015625 -6.609375 C 10.015625 -7.929688 9.789062 -8.90625 9.34375 -9.53125 C 8.90625 -10.164062 8.25 -10.484375 7.375 -10.484375 C 5.582031 -10.484375 4.6875 -9.191406 4.6875 -6.609375 Z M 4.6875 -6.609375"/></g><g id="j"><path d="M 4.9375 0 L 1.421875 0 L 1.421875 -13.203125 L 9.21875 -13.203125 L 9.21875 -10.328125 L 4.9375 -10.328125 L 4.9375 -7.8125 L 8.890625 -7.8125 L 8.890625 -4.953125 L 4.9375 -4.953125 Z M 4.9375 0"/></g><g id="k"><path d="M 1.421875 0 L 1.421875 -13.203125 L 4.984375 -13.203125 L 4.984375 -2.875 L 10.078125 -2.875 L 10.078125 0 Z M 1.421875 0"/></g><g id="l"><path d="M 4.984375 -4.796875 L 4.984375 0 L 1.421875 0 L 1.421875 -13.203125 L 5.75 -13.203125 C 9.332031 -13.203125 11.125 -11.898438 11.125 -9.296875 C 11.125 -7.765625 10.378906 -6.582031 8.890625 -5.75 L 12.734375 0 L 8.6875 0 L 5.890625 -4.796875 Z M 4.984375 -7.484375 L 5.65625 -7.484375 C 6.90625 -7.484375 7.53125 -8.035156 7.53125 -9.140625 C 7.53125 -10.046875 6.914062 -10.5 5.6875 -10.5 L 4.984375 -10.5 Z M 4.984375 -7.484375"/></g><g id="m"><path d="M 1.421875 0 L 1.421875 -13.203125 L 5.015625 -13.203125 L 5.015625 0 Z M 1.421875 0"/></g><g id="n"><path d="M 6.71875 -7.71875 L 12.421875 -7.71875 L 12.421875 -0.609375 C 10.867188 -0.078125 9.164062 0.1875 7.3125 0.1875 C 5.28125 0.1875 3.707031 -0.398438 2.59375 -1.578125 C 1.488281 -2.765625 0.9375 -4.453125 0.9375 -6.640625 C 0.9375 -8.765625 1.539062 -10.421875 2.75 -11.609375 C 3.96875 -12.796875 5.675781 -13.390625 7.875 -13.390625 C 8.695312 -13.390625 9.476562 -13.3125 10.21875 -13.15625 C 10.957031 -13 11.597656 -12.796875 12.140625 -12.546875 L 11.015625 -9.75 C 10.066406 -10.21875 9.023438 -10.453125 7.890625 -10.453125 C 6.847656 -10.453125 6.039062 -10.113281 5.46875 -9.4375 C 4.90625 -8.769531 4.625 -7.804688 4.625 -6.546875 C 4.625 -5.304688 4.878906 -4.363281 5.390625 -3.71875 C 5.910156 -3.070312 6.65625 -2.75 7.625 -2.75 C 8.144531 -2.75 8.628906 -2.800781 9.078125 -2.90625 L 9.078125 -4.96875 L 6.71875 -4.96875 Z M 6.71875 -7.71875"/></g><g id="o"><path d="M 11.65625 0 C 11.3125 0 11.109375 -0.1875 11.046875 -0.5625 L 9.796875 -11.390625 C 9.796875 -11.503906 9.753906 -11.5625 9.671875 -11.5625 C 9.554688 -11.5625 9.5 -11.488281 9.5 -11.34375 L 8.171875 -0.640625 C 8.140625 -0.441406 8.054688 -0.285156 7.921875 -0.171875 C 7.796875 -0.0546875 7.648438 0 7.484375 0 L 0.859375 0 C 0.691406 0 0.554688 -0.0546875 0.453125 -0.171875 C 0.347656 -0.285156 0.3125 -0.441406 0.34375 -0.640625 L 3.875 -29.4375 C 3.894531 -29.644531 3.96875 -29.804688 4.09375 -29.921875 C 4.226562 -30.035156 4.382812 -30.09375 4.5625 -30.09375 L 13.96875 -30.09375 C 16.257812 -30.09375 18.070312 -29.359375 19.40625 -27.890625 C 20.738281 -26.429688 21.40625 -24.5 21.40625 -22.09375 C 21.40625 -21.40625 21.375 -20.875 21.3125 -20.5 C 21.113281 -18.925781 20.671875 -17.515625 19.984375 -16.265625 C 19.296875 -15.023438 18.410156 -14.015625 17.328125 -13.234375 C 17.179688 -13.148438 17.132812 -13.050781 17.1875 -12.9375 L 19.046875 -0.734375 L 19.046875 -0.5625 C 19.046875 -0.382812 18.988281 -0.242188 18.875 -0.140625 C 18.757812 -0.046875 18.613281 0 18.4375 0 Z M 11.140625 -23.171875 C 10.992188 -23.171875 10.921875 -23.097656 10.921875 -22.953125 L 10.265625 -17.921875 C 10.265625 -17.773438 10.335938 -17.703125 10.484375 -17.703125 L 11.046875 -17.703125 C 11.734375 -17.703125 12.3125 -18.003906 12.78125 -18.609375 C 13.257812 -19.210938 13.5 -20.046875 13.5 -21.109375 C 13.5 -21.765625 13.335938 -22.269531 13.015625 -22.625 C 12.703125 -22.988281 12.273438 -23.171875 11.734375 -23.171875 Z M 11.140625 -23.171875"/></g><g id="p"><path d="M 9.203125 0.34375 C 6.648438 0.34375 4.640625 -0.347656 3.171875 -1.734375 C 1.710938 -3.128906 0.984375 -5.015625 0.984375 -7.390625 C 0.984375 -7.679688 1.015625 -8.171875 1.078125 -8.859375 L 2.625 -21.234375 C 2.96875 -24.046875 4.078125 -26.28125 5.953125 -27.9375 C 7.828125 -29.601562 10.171875 -30.4375 12.984375 -30.4375 C 15.503906 -30.4375 17.5 -29.738281 18.96875 -28.34375 C 20.445312 -26.957031 21.1875 -25.078125 21.1875 -22.703125 C 21.1875 -22.410156 21.160156 -21.921875 21.109375 -21.234375 L 19.59375 -8.859375 C 19.25 -6.046875 18.128906 -3.804688 16.234375 -2.140625 C 14.347656 -0.484375 12.003906 0.34375 9.203125 0.34375 Z M 10.0625 -6.578125 C 10.488281 -6.578125 10.851562 -6.75 11.15625 -7.09375 C 11.457031 -7.4375 11.648438 -7.910156 11.734375 -8.515625 L 13.328125 -21.578125 C 13.378906 -22.179688 13.304688 -22.65625 13.109375 -23 C 12.910156 -23.34375 12.597656 -23.515625 12.171875 -23.515625 C 11.710938 -23.515625 11.332031 -23.34375 11.03125 -23 C 10.726562 -22.65625 10.546875 -22.179688 10.484375 -21.578125 L 8.890625 -8.515625 C 8.867188 -8.398438 8.859375 -8.238281 8.859375 -8.03125 C 8.859375 -7.570312 8.960938 -7.210938 9.171875 -6.953125 C 9.390625 -6.703125 9.6875 -6.578125 10.0625 -6.578125 Z M 10.0625 -6.578125"/></g><g id="q"><path d="M 19.734375 -8.640625 C 19.410156 -5.859375 18.3125 -3.722656 16.4375 -2.234375 C 14.5625 -0.742188 12.304688 0 9.671875 0 L 0.859375 0 C 0.691406 0 0.554688 -0.0546875 0.453125 -0.171875 C 0.347656 -0.285156 0.3125 -0.441406 0.34375 -0.640625 L 3.875 -29.4375 C 3.894531 -29.644531 3.96875 -29.804688 4.09375 -29.921875 C 4.226562 -30.035156 4.382812 -30.09375 4.5625 -30.09375 L 12.125 -30.09375 C 14.875 -30.09375 17.015625 -29.507812 18.546875 -28.34375 C 20.078125 -27.1875 20.84375 -25.429688 20.84375 -23.078125 C 20.84375 -22.796875 20.816406 -22.3125 20.765625 -21.625 C 20.421875 -18.957031 19.375 -16.976562 17.625 -15.6875 C 17.445312 -15.601562 17.40625 -15.519531 17.5 -15.4375 C 19.039062 -14.113281 19.8125 -12.265625 19.8125 -9.890625 C 19.8125 -9.628906 19.785156 -9.210938 19.734375 -8.640625 Z M 11.140625 -23.171875 C 10.992188 -23.171875 10.921875 -23.097656 10.921875 -22.953125 L 10.359375 -18.5625 C 10.359375 -18.425781 10.414062 -18.359375 10.53125 -18.359375 L 10.796875 -18.359375 C 12.023438 -18.359375 12.753906 -19.160156 12.984375 -20.765625 L 13.03125 -21.3125 C 13.03125 -22.550781 12.484375 -23.171875 11.390625 -23.171875 Z M 9.890625 -6.921875 C 10.515625 -6.921875 11.035156 -7.21875 11.453125 -7.8125 C 11.867188 -8.414062 12.078125 -9.28125 12.078125 -10.40625 C 12.078125 -11.0625 11.945312 -11.585938 11.6875 -11.984375 C 11.4375 -12.390625 11.078125 -12.59375 10.609375 -12.59375 L 9.84375 -12.59375 C 9.695312 -12.59375 9.625 -12.519531 9.625 -12.375 L 8.984375 -7.140625 C 8.921875 -6.992188 8.976562 -6.921875 9.15625 -6.921875 Z M 9.890625 -6.921875"/></g><g id="r"><path d="M 22.3125 -30.09375 C 22.476562 -30.09375 22.613281 -30.035156 22.71875 -29.921875 C 22.820312 -29.804688 22.859375 -29.644531 22.828125 -29.4375 L 22.140625 -23.8125 C 22.109375 -23.613281 22.035156 -23.457031 21.921875 -23.34375 C 21.804688 -23.226562 21.648438 -23.171875 21.453125 -23.171875 L 16.46875 -23.171875 C 16.320312 -23.171875 16.25 -23.097656 16.25 -22.953125 L 13.5 -0.640625 C 13.46875 -0.441406 13.394531 -0.285156 13.28125 -0.171875 C 13.164062 -0.0546875 13.007812 0 12.8125 0 L 6.234375 0 C 6.035156 0 5.882812 -0.0546875 5.78125 -0.171875 C 5.675781 -0.285156 5.640625 -0.441406 5.671875 -0.640625 L 8.421875 -22.953125 C 8.421875 -23.097656 8.347656 -23.171875 8.203125 -23.171875 L 3.390625 -23.171875 C 3.191406 -23.171875 3.039062 -23.226562 2.9375 -23.34375 C 2.84375 -23.457031 2.8125 -23.613281 2.84375 -23.8125 L 3.53125 -29.4375 C 3.550781 -29.644531 3.625 -29.804688 3.75 -29.921875 C 3.882812 -30.035156 4.050781 -30.09375 4.25 -30.09375 Z M 22.3125 -30.09375"/></g><g id="s"><path d="M 19.859375 -23.8125 C 19.828125 -23.613281 19.742188 -23.457031 19.609375 -23.34375 C 19.484375 -23.226562 19.320312 -23.171875 19.125 -23.171875 L 11.140625 -23.171875 C 10.992188 -23.171875 10.921875 -23.097656 10.921875 -22.953125 L 10.40625 -18.734375 C 10.34375 -18.597656 10.398438 -18.53125 10.578125 -18.53125 L 14.75 -18.53125 C 14.945312 -18.53125 15.09375 -18.472656 15.1875 -18.359375 C 15.289062 -18.242188 15.328125 -18.082031 15.296875 -17.875 L 14.609375 -12.25 C 14.523438 -11.820312 14.285156 -11.609375 13.890625 -11.609375 L 9.71875 -11.609375 C 9.570312 -11.609375 9.5 -11.535156 9.5 -11.390625 L 8.984375 -7.140625 C 8.921875 -6.992188 8.976562 -6.921875 9.15625 -6.921875 L 17.15625 -6.921875 C 17.351562 -6.921875 17.5 -6.863281 17.59375 -6.75 C 17.695312 -6.632812 17.734375 -6.476562 17.703125 -6.28125 L 17.015625 -0.640625 C 16.992188 -0.441406 16.914062 -0.285156 16.78125 -0.171875 C 16.65625 -0.0546875 16.492188 0 16.296875 0 L 0.859375 0 C 0.691406 0 0.554688 -0.0546875 0.453125 -0.171875 C 0.347656 -0.285156 0.3125 -0.441406 0.34375 -0.640625 L 3.875 -29.4375 C 3.894531 -29.644531 3.96875 -29.804688 4.09375 -29.921875 C 4.226562 -30.035156 4.382812 -30.09375 4.5625 -30.09375 L 19.984375 -30.09375 C 20.179688 -30.09375 20.332031 -30.035156 20.4375 -29.921875 C 20.539062 -29.804688 20.578125 -29.644531 20.546875 -29.4375 Z M 19.859375 -23.8125"/></g><g id="t"><path d="M 9.0625 0.34375 C 6.570312 0.34375 4.601562 -0.34375 3.15625 -1.71875 C 1.707031 -3.09375 0.984375 -4.96875 0.984375 -7.34375 C 0.984375 -7.632812 1.015625 -8.125 1.078125 -8.8125 L 2.625 -21.359375 C 2.96875 -24.140625 4.066406 -26.347656 5.921875 -27.984375 C 7.785156 -29.617188 10.097656 -30.4375 12.859375 -30.4375 C 15.347656 -30.4375 17.320312 -29.753906 18.78125 -28.390625 C 20.238281 -27.023438 20.96875 -25.15625 20.96875 -22.78125 C 20.96875 -22.519531 20.941406 -22.046875 20.890625 -21.359375 L 20.84375 -21.140625 C 20.8125 -20.941406 20.734375 -20.773438 20.609375 -20.640625 C 20.484375 -20.515625 20.332031 -20.453125 20.15625 -20.453125 L 13.546875 -20.25 C 13.109375 -20.25 12.921875 -20.445312 12.984375 -20.84375 L 13.109375 -21.921875 C 13.171875 -22.410156 13.097656 -22.796875 12.890625 -23.078125 C 12.691406 -23.367188 12.40625 -23.515625 12.03125 -23.515625 C 11.632812 -23.515625 11.296875 -23.367188 11.015625 -23.078125 C 10.742188 -22.796875 10.582031 -22.410156 10.53125 -21.921875 L 8.859375 -8.125 C 8.796875 -7.664062 8.859375 -7.289062 9.046875 -7 C 9.234375 -6.71875 9.523438 -6.578125 9.921875 -6.578125 C 10.328125 -6.578125 10.664062 -6.710938 10.9375 -6.984375 C 11.207031 -7.253906 11.375 -7.632812 11.4375 -8.125 L 11.5625 -9.28125 C 11.59375 -9.476562 11.671875 -9.628906 11.796875 -9.734375 C 11.929688 -9.835938 12.082031 -9.890625 12.25 -9.890625 L 18.828125 -9.671875 C 19.023438 -9.671875 19.171875 -9.601562 19.265625 -9.46875 C 19.367188 -9.34375 19.410156 -9.179688 19.390625 -8.984375 L 19.34375 -8.8125 C 19 -6.03125 17.890625 -3.804688 16.015625 -2.140625 C 14.140625 -0.484375 11.820312 0.34375 9.0625 0.34375 Z M 9.0625 0.34375"/></g><g id="u"><path d="M 14.140625 -29.4375 C 14.171875 -29.644531 14.242188 -29.804688 14.359375 -29.921875 C 14.472656 -30.035156 14.628906 -30.09375 14.828125 -30.09375 L 21.40625 -30.09375 C 21.601562 -30.09375 21.753906 -30.035156 21.859375 -29.921875 C 21.960938 -29.804688 22 -29.644531 21.96875 -29.4375 L 18.4375 -0.640625 C 18.40625 -0.441406 18.328125 -0.285156 18.203125 -0.171875 C 18.078125 -0.0546875 17.910156 0 17.703125 0 L 11.140625 0 C 10.929688 0 10.773438 -0.0546875 10.671875 -0.171875 C 10.578125 -0.285156 10.546875 -0.441406 10.578125 -0.640625 L 11.90625 -11.390625 C 11.90625 -11.535156 11.847656 -11.609375 11.734375 -11.609375 L 9.71875 -11.609375 C 9.570312 -11.609375 9.5 -11.535156 9.5 -11.390625 L 8.171875 -0.640625 C 8.140625 -0.441406 8.054688 -0.285156 7.921875 -0.171875 C 7.796875 -0.0546875 7.648438 0 7.484375 0 L 0.859375 0 C 0.691406 0 0.554688 -0.0546875 0.453125 -0.171875 C 0.347656 -0.285156 0.3125 -0.441406 0.34375 -0.640625 L 3.875 -29.4375 C 3.894531 -29.644531 3.96875 -29.804688 4.09375 -29.921875 C 4.226562 -30.035156 4.382812 -30.09375 4.5625 -30.09375 L 11.171875 -30.09375 C 11.347656 -30.09375 11.484375 -30.035156 11.578125 -29.921875 C 11.679688 -29.804688 11.71875 -29.644531 11.6875 -29.4375 L 10.40625 -18.734375 C 10.34375 -18.597656 10.398438 -18.53125 10.578125 -18.53125 L 12.59375 -18.53125 C 12.65625 -18.53125 12.707031 -18.550781 12.75 -18.59375 C 12.789062 -18.632812 12.8125 -18.679688 12.8125 -18.734375 Z M 14.140625 -29.4375"/></g><clipPath id="a"><path d="M 94 126 L 139 126 L 139 189.308594 L 94 189.308594 Z M 94 126"/></clipPath><clipPath id="b"><path d="M 75.5625 107.558594 L 157.3125 107.558594 L 157.3125 183 L 75.5625 183 Z M 75.5625 107.558594"/></clipPath></defs><path fill="#5CE1E6" d="M 155.949219 141.621094 L 155.949219 155.246094 L 148.195312 156.210938 C 147.390625 159.496094 146.113281 162.589844 144.394531 165.394531 L 149.191406 171.550781 L 139.558594 181.183594 L 133.398438 176.390625 C 131.496094 177.558594 129.449219 178.527344 127.296875 179.28125 C 127.050781 178.011719 125.949219 177.042969 124.613281 177.042969 L 125.976562 177.042969 C 126.726562 177.042969 127.40625 176.746094 127.894531 176.242188 C 128.402344 175.75 128.699219 175.070312 128.699219 174.320312 C 128.699219 172.824219 127.476562 171.59375 125.976562 171.59375 L 125.976562 166.5 C 132.464844 163.078125 136.875 156.265625 136.875 148.433594 C 136.875 137.148438 127.722656 127.996094 116.4375 127.996094 C 105.15625 127.996094 96 137.148438 96 148.433594 C 96 156.265625 100.414062 163.078125 106.898438 166.5 L 106.898438 171.59375 C 106.148438 171.59375 105.46875 171.890625 104.980469 172.398438 C 104.472656 172.886719 104.175781 173.570312 104.175781 174.320312 C 104.175781 175.816406 105.398438 177.042969 106.898438 177.042969 L 108.261719 177.042969 C 107.511719 177.042969 106.832031 177.34375 106.339844 177.847656 C 105.949219 178.230469 105.6875 178.722656 105.582031 179.28125 C 103.425781 178.527344 101.382812 177.558594 99.476562 176.390625 L 93.316406 181.183594 L 83.683594 171.550781 L 88.480469 165.394531 C 86.761719 162.589844 85.484375 159.496094 84.679688 156.210938 L 76.925781 155.246094 L 76.925781 141.621094 L 84.679688 140.652344 C 85.484375 137.367188 86.761719 134.273438 88.480469 131.46875 L 83.683594 125.3125 L 93.316406 115.679688 L 99.476562 120.472656 C 102.28125 118.753906 105.371094 117.476562 108.65625 116.671875 L 109.625 108.917969 L 123.25 108.917969 L 124.21875 116.671875 C 127.503906 117.476562 130.59375 118.753906 133.398438 120.472656 L 139.558594 115.679688 L 149.191406 125.3125 L 144.394531 131.46875 C 146.113281 134.273438 147.390625 137.367188 148.195312 140.652344 L 155.949219 141.621094"/><path fill="#5CE1E6" d="M 116.4375 152.519531 L 120.523438 152.519531 L 120.523438 171.59375 L 112.351562 171.59375 L 112.351562 152.519531 L 116.4375 152.519531"/><path fill="#5CE1E6" d="M 116.4375 141.621094 L 119.164062 147.070312 L 113.710938 147.070312 Z M 116.4375 141.621094"/><g clip-path="url(#a)"><path fill="#03989E" d="M 124.613281 181.132812 L 108.261719 181.132812 C 107.511719 181.132812 106.898438 180.519531 106.898438 179.769531 C 106.898438 179.019531 107.511719 178.40625 108.261719 178.40625 L 124.613281 178.40625 C 125.363281 178.40625 125.976562 179.019531 125.976562 179.769531 C 125.976562 180.519531 125.363281 181.132812 124.613281 181.132812 Z M 119.164062 186.582031 L 113.710938 186.582031 C 111.941406 186.582031 110.4375 185.4375 109.875 183.855469 L 123 183.855469 C 122.4375 185.4375 120.933594 186.582031 119.164062 186.582031 Z M 106.898438 172.957031 L 125.976562 172.957031 C 126.726562 172.957031 127.335938 173.570312 127.335938 174.320312 C 127.335938 175.070312 126.726562 175.683594 125.976562 175.683594 L 106.898438 175.683594 C 106.148438 175.683594 105.539062 175.070312 105.539062 174.320312 C 105.539062 173.570312 106.148438 172.957031 106.898438 172.957031 Z M 113.710938 153.882812 L 115.074219 153.882812 L 115.074219 167.507812 L 117.800781 167.507812 L 117.800781 153.882812 L 119.164062 153.882812 L 119.164062 170.230469 L 113.710938 170.230469 Z M 115.917969 145.707031 L 116.4375 144.664062 L 116.960938 145.707031 Z M 114.554688 148.433594 L 118.320312 148.433594 L 119.164062 150.113281 L 119.164062 151.15625 L 113.710938 151.15625 L 113.710938 150.113281 Z M 97.363281 148.433594 C 97.363281 137.914062 105.921875 129.355469 116.4375 129.355469 C 126.953125 129.355469 135.511719 137.914062 135.511719 148.433594 C 135.511719 155.515625 131.617188 161.976562 125.335938 165.296875 C 124.894531 165.53125 124.613281 165.996094 124.613281 166.5 L 124.613281 170.230469 L 121.886719 170.230469 L 121.886719 149.792969 C 121.886719 149.582031 121.839844 149.375 121.742188 149.183594 L 117.65625 141.007812 C 117.195312 140.085938 115.683594 140.085938 115.21875 141.007812 L 111.132812 149.183594 C 111.035156 149.375 110.988281 149.582031 110.988281 149.792969 L 110.988281 170.230469 L 108.261719 170.230469 L 108.261719 166.5 C 108.261719 165.996094 107.980469 165.53125 107.539062 165.296875 C 101.257812 161.976562 97.363281 155.515625 97.363281 148.433594 Z M 127.335938 170.480469 L 127.335938 167.304688 C 134.082031 163.410156 138.238281 156.25 138.238281 148.433594 C 138.238281 136.410156 128.460938 126.632812 116.4375 126.632812 C 104.414062 126.632812 94.636719 136.410156 94.636719 148.433594 C 94.636719 156.25 98.792969 163.410156 105.539062 167.304688 L 105.539062 170.480469 C 103.957031 171.046875 102.8125 172.546875 102.8125 174.320312 C 102.8125 175.773438 103.578125 177.039062 104.722656 177.769531 C 104.382812 178.359375 104.175781 179.035156 104.175781 179.769531 C 104.175781 181.585938 105.371094 183.113281 107.015625 183.644531 C 107.566406 186.851562 110.347656 189.308594 113.710938 189.308594 L 119.164062 189.308594 C 122.527344 189.308594 125.308594 186.851562 125.859375 183.644531 C 127.503906 183.113281 128.699219 181.585938 128.699219 179.769531 C 128.699219 179.035156 128.492188 178.359375 128.152344 177.769531 C 129.296875 177.039062 130.0625 175.773438 130.0625 174.320312 C 130.0625 172.546875 128.917969 171.046875 127.335938 170.480469"/></g><g clip-path="url(#b)"><path fill="#03989E" d="M 156.121094 140.265625 L 149.285156 139.414062 C 148.535156 136.664062 147.445312 134.039062 146.046875 131.582031 L 150.269531 126.148438 C 150.691406 125.605469 150.644531 124.832031 150.160156 124.347656 L 140.519531 114.710938 C 140.035156 114.226562 139.265625 114.175781 138.722656 114.597656 L 133.292969 118.824219 C 130.828125 117.425781 128.207031 116.339844 125.453125 115.582031 L 124.601562 108.75 C 124.515625 108.066406 123.9375 107.558594 123.25 107.558594 L 109.625 107.558594 C 108.9375 107.558594 108.359375 108.066406 108.273438 108.75 L 107.421875 115.582031 C 104.671875 116.339844 102.046875 117.425781 99.582031 118.824219 L 94.152344 114.597656 C 93.609375 114.175781 92.832031 114.226562 92.355469 114.710938 L 82.714844 124.347656 C 82.230469 124.832031 82.183594 125.605469 82.605469 126.148438 L 86.828125 131.582031 C 85.429688 134.039062 84.339844 136.664062 83.589844 139.414062 L 76.753906 140.265625 C 76.074219 140.351562 75.5625 140.933594 75.5625 141.621094 L 75.5625 155.246094 C 75.5625 155.929688 76.074219 156.511719 76.753906 156.597656 L 83.589844 157.449219 C 84.339844 160.199219 85.429688 162.824219 86.828125 165.28125 L 82.605469 170.714844 C 82.183594 171.257812 82.230469 172.03125 82.714844 172.515625 L 92.355469 182.152344 C 92.832031 182.636719 93.609375 182.6875 94.152344 182.265625 L 99.582031 178.039062 C 99.910156 178.226562 100.242188 178.40625 100.578125 178.582031 L 101.84375 176.167969 C 101.28125 175.875 100.726562 175.558594 100.1875 175.230469 C 99.699219 174.9375 99.085938 174.972656 98.640625 175.320312 L 93.429688 179.375 L 85.492188 171.441406 L 89.550781 166.230469 C 89.894531 165.78125 89.933594 165.164062 89.640625 164.679688 C 87.984375 161.960938 86.761719 159.007812 86 155.886719 C 85.867188 155.339844 85.410156 154.929688 84.84375 154.859375 L 78.289062 154.042969 L 78.289062 142.820312 L 84.84375 142.003906 C 85.410156 141.933594 85.867188 141.523438 86 140.976562 C 86.761719 137.855469 87.984375 134.902344 89.640625 132.183594 C 89.933594 131.699219 89.894531 131.082031 89.550781 130.632812 L 85.492188 125.421875 L 93.429688 117.488281 L 98.640625 121.542969 C 99.085938 121.890625 99.703125 121.925781 100.183594 121.632812 C 102.910156 119.980469 105.863281 118.753906 108.980469 117.992188 C 109.53125 117.859375 109.9375 117.402344 110.007812 116.839844 L 110.828125 110.28125 L 122.046875 110.28125 L 122.867188 116.839844 C 122.9375 117.402344 123.347656 117.859375 123.894531 117.992188 C 127.011719 118.753906 129.96875 119.980469 132.691406 121.632812 C 133.175781 121.925781 133.789062 121.890625 134.234375 121.542969 L 139.445312 117.488281 L 147.382812 125.421875 L 143.324219 130.632812 C 142.980469 131.082031 142.941406 131.699219 143.234375 132.183594 C 144.890625 134.902344 146.113281 137.855469 146.875 140.976562 C 147.007812 141.523438 147.464844 141.933594 148.03125 142.003906 L 154.585938 142.820312 L 154.585938 154.042969 L 148.03125 154.859375 C 147.464844 154.929688 147.007812 155.339844 146.875 155.886719 C 146.113281 159.007812 144.890625 161.960938 143.234375 164.679688 C 142.941406 165.164062 142.980469 165.78125 143.324219 166.230469 L 147.382812 171.441406 L 139.445312 179.375 L 134.234375 175.320312 C 133.789062 174.972656 133.175781 174.9375 132.691406 175.230469 C 132.019531 175.640625 131.324219 176.023438 130.621094 176.382812 L 131.855469 178.8125 C 132.339844 178.566406 132.820312 178.304688 133.292969 178.039062 L 138.722656 182.265625 C 138.972656 182.457031 139.265625 182.554688 139.558594 182.554688 C 139.910156 182.554688 140.261719 182.417969 140.519531 182.152344 L 150.160156 172.515625 C 150.644531 172.03125 150.691406 171.257812 150.269531 170.714844 L 146.046875 165.28125 C 147.445312 162.824219 148.535156 160.199219 149.285156 157.449219 L 156.121094 156.597656 C 156.800781 156.511719 157.3125 155.929688 157.3125 155.246094 L 157.3125 141.621094 C 157.3125 140.933594 156.800781 140.351562 156.121094 140.265625"/></g><path fill="#03989E" d="M 117.800781 121.183594 L 115.074219 121.183594 L 115.074219 123.90625 L 117.800781 123.90625 L 117.800781 121.183594"/><path fill="#03989E" d="M 103.996094 124.152344 L 101.632812 125.515625 L 102.992188 127.871094 L 105.355469 126.507812 L 103.996094 124.152344"/><path fill="#03989E" d="M 95.878906 134.988281 L 93.519531 133.625 L 92.15625 135.988281 L 94.515625 137.351562 L 95.878906 134.988281"/><path fill="#03989E" d="M 89.1875 149.792969 L 91.914062 149.792969 L 91.914062 147.070312 L 89.1875 147.070312 L 89.1875 149.792969"/><path fill="#03989E" d="M 93.519531 163.238281 L 95.878906 161.875 L 94.515625 159.511719 L 92.15625 160.875 L 93.519531 163.238281"/><path fill="#03989E" d="M 136.996094 161.875 L 139.355469 163.238281 L 140.71875 160.875 L 138.359375 159.511719 L 136.996094 161.875"/><path fill="#03989E" d="M 143.6875 147.070312 L 140.960938 147.070312 L 140.960938 149.792969 L 143.6875 149.792969 L 143.6875 147.070312"/><path fill="#03989E" d="M 139.355469 133.625 L 136.996094 134.988281 L 138.359375 137.351562 L 140.71875 135.988281 L 139.355469 133.625"/><path fill="#03989E" d="M 128.882812 124.152344 L 127.519531 126.507812 L 129.882812 127.871094 L 131.246094 125.515625 L 128.882812 124.152344"/><g><use x="84.111" y="213.774" xmlns:xlink="http://www.w3.org/1999/xlink" xlink:href="#c" xlink:type="simple" xlink:actuate="onLoad" xlink:show="embed"/></g><g><use x="97.536" y="213.774" xmlns:xlink="http://www.w3.org/1999/xlink" xlink:href="#d" xlink:type="simple" xlink:actuate="onLoad" xlink:show="embed"/></g><g><use x="102.338" y="213.774" xmlns:xlink="http://www.w3.org/1999/xlink" xlink:href="#e" xlink:type="simple" xlink:actuate="onLoad" xlink:show="embed"/></g><g><use x="117.758" y="213.774" xmlns:xlink="http://www.w3.org/1999/xlink" xlink:href="#f" xlink:type="simple" xlink:actuate="onLoad" xlink:show="embed"/></g><g><use x="127.905" y="213.774" xmlns:xlink="http://www.w3.org/1999/xlink" xlink:href="#g" xlink:type="simple" xlink:actuate="onLoad" xlink:show="embed"/></g><g><use x="147.116" y="213.774" xmlns:xlink="http://www.w3.org/1999/xlink" xlink:href="#d" xlink:type="simple" xlink:actuate="onLoad" xlink:show="embed"/></g><g><use x="151.919" y="213.774" xmlns:xlink="http://www.w3.org/1999/xlink" xlink:href="#g" xlink:type="simple" xlink:actuate="onLoad" xlink:show="embed"/></g><g><use x="171.13" y="213.774" xmlns:xlink="http://www.w3.org/1999/xlink" xlink:href="#c" xlink:type="simple" xlink:actuate="onLoad" xlink:show="embed"/></g><g><use x="184.554" y="213.774" xmlns:xlink="http://www.w3.org/1999/xlink" xlink:href="#h" xlink:type="simple" xlink:actuate="onLoad" xlink:show="embed"/></g><g><use x="196.832" y="213.774" xmlns:xlink="http://www.w3.org/1999/xlink" xlink:href="#d" xlink:type="simple" xlink:actuate="onLoad" xlink:show="embed"/></g><g><use x="201.635" y="213.774" xmlns:xlink="http://www.w3.org/1999/xlink" xlink:href="#i" xlink:type="simple" xlink:actuate="onLoad" xlink:show="embed"/></g><g><use x="216.368" y="213.774" xmlns:xlink="http://www.w3.org/1999/xlink" xlink:href="#j" xlink:type="simple" xlink:actuate="onLoad" xlink:show="embed"/></g><g><use x="226.335" y="213.774" xmlns:xlink="http://www.w3.org/1999/xlink" xlink:href="#d" xlink:type="simple" xlink:actuate="onLoad" xlink:show="embed"/></g><g><use x="231.137" y="213.774" xmlns:xlink="http://www.w3.org/1999/xlink" xlink:href="#k" xlink:type="simple" xlink:actuate="onLoad" xlink:show="embed"/></g><g><use x="241.898" y="213.774" xmlns:xlink="http://www.w3.org/1999/xlink" xlink:href="#f" xlink:type="simple" xlink:actuate="onLoad" xlink:show="embed"/></g><g><use x="252.046" y="213.774" xmlns:xlink="http://www.w3.org/1999/xlink" xlink:href="#c" xlink:type="simple" xlink:actuate="onLoad" xlink:show="embed"/></g><g><use x="265.47" y="213.774" xmlns:xlink="http://www.w3.org/1999/xlink" xlink:href="#l" xlink:type="simple" xlink:actuate="onLoad" xlink:show="embed"/></g><g><use x="277.982" y="213.774" xmlns:xlink="http://www.w3.org/1999/xlink" xlink:href="#e" xlink:type="simple" xlink:actuate="onLoad" xlink:show="embed"/></g><g><use x="293.402" y="213.774" xmlns:xlink="http://www.w3.org/1999/xlink" xlink:href="#m" xlink:type="simple" xlink:actuate="onLoad" xlink:show="embed"/></g><g><use x="299.839" y="213.774" xmlns:xlink="http://www.w3.org/1999/xlink" xlink:href="#e" xlink:type="simple" xlink:actuate="onLoad" xlink:show="embed"/></g><g><use x="315.258" y="213.774" xmlns:xlink="http://www.w3.org/1999/xlink" xlink:href="#n" xlink:type="simple" xlink:actuate="onLoad" xlink:show="embed"/></g><g fill="#F00"><use x="157.103" y="165.86" xmlns:xlink="http://www.w3.org/1999/xlink" xlink:href="#o" xlink:type="simple" xlink:actuate="onLoad" xlink:show="embed"/></g><g fill="#F00"><use x="180.574" y="165.86" xmlns:xlink="http://www.w3.org/1999/xlink" xlink:href="#p" xlink:type="simple" xlink:actuate="onLoad" xlink:show="embed"/></g><g fill="#F00"><use x="203.786" y="165.86" xmlns:xlink="http://www.w3.org/1999/xlink" xlink:href="#q" xlink:type="simple" xlink:actuate="onLoad" xlink:show="embed"/></g><g fill="#F00"><use x="226.999" y="165.86" xmlns:xlink="http://www.w3.org/1999/xlink" xlink:href="#p" xlink:type="simple" xlink:actuate="onLoad" xlink:show="embed"/></g><g fill="#F00"><use x="250.211" y="165.86" xmlns:xlink="http://www.w3.org/1999/xlink" xlink:href="#r" xlink:type="simple" xlink:actuate="onLoad" xlink:show="embed"/></g><g fill="#F00"><use x="274.069" y="165.86" xmlns:xlink="http://www.w3.org/1999/xlink" xlink:href="#s" xlink:type="simple" xlink:actuate="onLoad" xlink:show="embed"/></g><g fill="#F00"><use x="295.648" y="165.86" xmlns:xlink="http://www.w3.org/1999/xlink" xlink:href="#t" xlink:type="simple" xlink:actuate="onLoad" xlink:show="embed"/></g><g fill="#F00"><use x="318.559" y="165.86" xmlns:xlink="http://www.w3.org/1999/xlink" xlink:href="#u" xlink:type="simple" xlink:actuate="onLoad" xlink:show="embed"/></g><g fill="#0FF"><use x="160.559" y="165.063" xmlns:xlink="http://www.w3.org/1999/xlink" xlink:href="#o" xlink:type="simple" xlink:actuate="onLoad" xlink:show="embed"/></g><g fill="#0FF"><use x="184.029" y="165.063" xmlns:xlink="http://www.w3.org/1999/xlink" xlink:href="#p" xlink:type="simple" xlink:actuate="onLoad" xlink:show="embed"/></g><g fill="#0FF"><use x="207.242" y="165.063" xmlns:xlink="http://www.w3.org/1999/xlink" xlink:href="#q" xlink:type="simple" xlink:actuate="onLoad" xlink:show="embed"/></g><g fill="#0FF"><use x="230.454" y="165.063" xmlns:xlink="http://www.w3.org/1999/xlink" xlink:href="#p" xlink:type="simple" xlink:actuate="onLoad" xlink:show="embed"/></g><g fill="#0FF"><use x="253.667" y="165.063" xmlns:xlink="http://www.w3.org/1999/xlink" xlink:href="#r" xlink:type="simple" xlink:actuate="onLoad" xlink:show="embed"/></g><g fill="#0FF"><use x="277.524" y="165.063" xmlns:xlink="http://www.w3.org/1999/xlink" xlink:href="#s" xlink:type="simple" xlink:actuate="onLoad" xlink:show="embed"/></g><g fill="#0FF"><use x="299.103" y="165.063" xmlns:xlink="http://www.w3.org/1999/xlink" xlink:href="#t" xlink:type="simple" xlink:actuate="onLoad" xlink:show="embed"/></g><g fill="#0FF"><use x="322.015" y="165.063" xmlns:xlink="http://www.w3.org/1999/xlink" xlink:href="#u" xlink:type="simple" xlink:actuate="onLoad" xlink:show="embed"/></g><g fill="#191919"><use x="158.831" y="165.461" xmlns:xlink="http://www.w3.org/1999/xlink" xlink:href="#o" xlink:type="simple" xlink:actuate="onLoad" xlink:show="embed"/></g><g fill="#191919"><use x="182.302" y="165.461" xmlns:xlink="http://www.w3.org/1999/xlink" xlink:href="#p" xlink:type="simple" xlink:actuate="onLoad" xlink:show="embed"/></g><g fill="#191919"><use x="205.514" y="165.461" xmlns:xlink="http://www.w3.org/1999/xlink" xlink:href="#q" xlink:type="simple" xlink:actuate="onLoad" xlink:show="embed"/></g><g fill="#191919"><use x="228.727" y="165.461" xmlns:xlink="http://www.w3.org/1999/xlink" xlink:href="#p" xlink:type="simple" xlink:actuate="onLoad" xlink:show="embed"/></g><g fill="#191919"><use x="251.939" y="165.461" xmlns:xlink="http://www.w3.org/1999/xlink" xlink:href="#r" xlink:type="simple" xlink:actuate="onLoad" xlink:show="embed"/></g><g fill="#191919"><use x="275.796" y="165.461" xmlns:xlink="http://www.w3.org/1999/xlink" xlink:href="#s" xlink:type="simple" xlink:actuate="onLoad" xlink:show="embed"/></g><g fill="#191919"><use x="297.375" y="165.461" xmlns:xlink="http://www.w3.org/1999/xlink" xlink:href="#t" xlink:type="simple" xlink:actuate="onLoad" xlink:show="embed"/></g><g fill="#191919"><use x="320.287" y="165.461" xmlns:xlink="http://www.w3.org/1999/xlink" xlink:href="#u" xlink:type="simple" xlink:actuate="onLoad" xlink:show="embed"/></g><g fill="#F00"><use x="341.857" y="165.86" xmlns:xlink="http://www.w3.org/1999/xlink" xlink:href="#v" xlink:type="simple" xlink:actuate="onLoad" xlink:show="embed"/></g><g fill="#0FF"><use x="345.312" y="165.063" xmlns:xlink="http://www.w3.org/1999/xlink" xlink:href="#v" xlink:type="simple" xlink:actuate="onLoad" xlink:show="embed"/></g><g fill="#191919"><use x="343.585" y="165.461" xmlns:xlink="http://www.w3.org/1999/xlink" xlink:href="#v" xlink:type="simple" xlink:actuate="onLoad" xlink:show="embed"/></g></svg>